<svg xmlns="http://www.w3.org/2000/svg" width="34" height="34" viewBox="0 0 34 34">
    <g fill="none" fill-rule="evenodd">
        <path fill="#A5D6AB" d="M32.517 15.412c0 8.283-7.088 15-15.834 15-8.744 0-15.833-6.717-15.833-15 0-8.285 7.089-15 15.833-15 8.746 0 15.834 6.715 15.834 15"/>
        <path fill="#0C8546" d="M32.88 20l-2.853 5.604-5.845 5.378-7.436 1.78-7.67-1.78-5.773-5.07L.563 20 16.746 3.768z"/>
        <g fill="#FFF">
            <path d="M17.56 18.99h5.727v-.667a6.732 6.732 0 0 0-5.727-6.656v7.323zM15.727 18.99v-7.323A6.732 6.732 0 0 0 10 18.323v.667h5.727zM10 28.088h5.727v-7.096H10zM17.56 28.088h5.727v-7.096H17.56z"/>
        </g>
        <path fill="#0C8546" d="M16.746.08c9.205 0 16.667 7.461 16.667 16.666S25.95 33.413 16.746 33.413C7.541 33.413.079 25.95.079 16.746.08 7.541 7.541.079 16.746.079zm0 1.666c-8.284 0-15 6.716-15 15 0 8.284 6.716 15 15 15 8.284 0 15-6.716 15-15 0-8.284-6.716-15-15-15z"/>
    </g>
</svg>
